<svg xmlns="http://www.w3.org/2000/svg" width="3000" height="2000">
<rect width="100%" height="100%" fill="white"/>
<text x="50" y="50" font-size="32" font-family="sans-serif">Answer Space (Optimal Answers)</text>
<line x1="1516.8054944613552" y1="1700.0" x2="759.4230208295089" y2="1582.56944888981" stroke="#d0d0d0" stroke-width="1"/>
<line x1="1516.8054944613552" y1="1700.0" x2="1032.4369869707225" y2="1665.9086985245108" stroke="#d0d0d0" stroke-width="1"/>
<line x1="1516.8054944613552" y1="1700.0" x2="1631.8951578127592" y2="1437.1069783159087" stroke="#d0d0d0" stroke-width="1"/>
<line x1="723.2009847637842" y1="1345.9829224173407" x2="759.4230208295089" y2="1582.56944888981" stroke="#d0d0d0" stroke-width="1"/>
<line x1="723.2009847637842" y1="1345.9829224173407" x2="300.0" y2="1168.073955358171" stroke="#d0d0d0" stroke-width="1"/>
<line x1="723.2009847637842" y1="1345.9829224173407" x2="1032.4369869707225" y2="1665.9086985245108" stroke="#d0d0d0" stroke-width="1"/>
<line x1="723.2009847637842" y1="1345.9829224173407" x2="531.683824001052" y2="1392.8678412560369" stroke="#d0d0d0" stroke-width="1"/>
<line x1="723.2009847637842" y1="1345.9829224173407" x2="641.1565813114235" y2="1112.470818047227" stroke="#d0d0d0" stroke-width="1"/>
<line x1="759.4230208295089" y1="1582.56944888981" x2="1032.4369869707225" y2="1665.9086985245108" stroke="#d0d0d0" stroke-width="1"/>
<line x1="759.4230208295089" y1="1582.56944888981" x2="531.683824001052" y2="1392.8678412560369" stroke="#d0d0d0" stroke-width="1"/>
<line x1="300.0" y1="1168.073955358171" x2="531.683824001052" y2="1392.8678412560369" stroke="#d0d0d0" stroke-width="1"/>
<line x1="300.0" y1="1168.073955358171" x2="490.51494742591365" y2="906.6233512413659" stroke="#d0d0d0" stroke-width="1"/>
<line x1="300.0" y1="1168.073955358171" x2="1281.7609787972615" y2="1460.5287249546755" stroke="#d0d0d0" stroke-width="1"/>
<line x1="531.683824001052" y1="1392.8678412560369" x2="641.1565813114235" y2="1112.470818047227" stroke="#d0d0d0" stroke-width="1"/>
<line x1="641.1565813114235" y1="1112.470818047227" x2="1095.402545814998" y2="983.6953754470705" stroke="#d0d0d0" stroke-width="1"/>
<line x1="641.1565813114235" y1="1112.470818047227" x2="994.2381511650495" y2="791.0322267389207" stroke="#d0d0d0" stroke-width="1"/>
<line x1="641.1565813114235" y1="1112.470818047227" x2="1259.102769851319" y2="695.2804456462667" stroke="#d0d0d0" stroke-width="1"/>
<line x1="1095.402545814998" y1="983.6953754470705" x2="994.2381511650495" y2="791.0322267389207" stroke="#d0d0d0" stroke-width="1"/>
<line x1="1095.402545814998" y1="983.6953754470705" x2="1259.102769851319" y2="695.2804456462667" stroke="#d0d0d0" stroke-width="1"/>
<line x1="1095.402545814998" y1="983.6953754470705" x2="1753.6739468340882" y2="746.9442384875349" stroke="#d0d0d0" stroke-width="1"/>
<line x1="1095.402545814998" y1="983.6953754470705" x2="1330.6242654603593" y2="551.728299982849" stroke="#d0d0d0" stroke-width="1"/>
<line x1="994.2381511650495" y1="791.0322267389207" x2="1259.102769851319" y2="695.2804456462667" stroke="#d0d0d0" stroke-width="1"/>
<line x1="994.2381511650495" y1="791.0322267389207" x2="1753.6739468340882" y2="746.9442384875349" stroke="#d0d0d0" stroke-width="1"/>
<line x1="994.2381511650495" y1="791.0322267389207" x2="838.1223183502759" y2="588.6968551047916" stroke="#d0d0d0" stroke-width="1"/>
<line x1="994.2381511650495" y1="791.0322267389207" x2="360.57667788062224" y2="643.6431615899739" stroke="#d0d0d0" stroke-width="1"/>
<line x1="994.2381511650495" y1="791.0322267389207" x2="1330.6242654603593" y2="551.728299982849" stroke="#d0d0d0" stroke-width="1"/>
<line x1="1259.102769851319" y1="695.2804456462667" x2="1753.6739468340882" y2="746.9442384875349" stroke="#d0d0d0" stroke-width="1"/>
<line x1="1259.102769851319" y1="695.2804456462667" x2="838.1223183502759" y2="588.6968551047916" stroke="#d0d0d0" stroke-width="1"/>
<line x1="1259.102769851319" y1="695.2804456462667" x2="720.1257477755437" y2="514.6745429538206" stroke="#d0d0d0" stroke-width="1"/>
<line x1="1259.102769851319" y1="695.2804456462667" x2="360.57667788062224" y2="643.6431615899739" stroke="#d0d0d0" stroke-width="1"/>
<line x1="1259.102769851319" y1="695.2804456462667" x2="1330.6242654603593" y2="551.728299982849" stroke="#d0d0d0" stroke-width="1"/>
<line x1="1259.102769851319" y1="695.2804456462667" x2="1909.453272836333" y2="418.7293374341347" stroke="#d0d0d0" stroke-width="1"/>
<line x1="1753.6739468340882" y1="746.9442384875349" x2="838.1223183502759" y2="588.6968551047916" stroke="#d0d0d0" stroke-width="1"/>
<line x1="1753.6739468340882" y1="746.9442384875349" x2="2118.645492033511" y2="480.3438555433981" stroke="#d0d0d0" stroke-width="1"/>
<line x1="1753.6739468340882" y1="746.9442384875349" x2="1330.6242654603593" y2="551.728299982849" stroke="#d0d0d0" stroke-width="1"/>
<line x1="1753.6739468340882" y1="746.9442384875349" x2="1909.453272836333" y2="418.7293374341347" stroke="#d0d0d0" stroke-width="1"/>
<line x1="838.1223183502759" y1="588.6968551047916" x2="720.1257477755437" y2="514.6745429538206" stroke="#d0d0d0" stroke-width="1"/>
<line x1="838.1223183502759" y1="588.6968551047916" x2="1330.6242654603593" y2="551.728299982849" stroke="#d0d0d0" stroke-width="1"/>
<line x1="838.1223183502759" y1="588.6968551047916" x2="1126.8726450648471" y2="300.0" stroke="#d0d0d0" stroke-width="1"/>
<line x1="720.1257477755437" y1="514.6745429538206" x2="1330.6242654603593" y2="551.728299982849" stroke="#d0d0d0" stroke-width="1"/>
<line x1="720.1257477755437" y1="514.6745429538206" x2="1126.8726450648471" y2="300.0" stroke="#d0d0d0" stroke-width="1"/>
<line x1="2659.0237065246215" y1="957.2027368267782" x2="2700.0" y2="1209.4375528417258" stroke="#d0d0d0" stroke-width="1"/>
<line x1="2659.0237065246215" y1="957.2027368267782" x2="2453.7568576774665" y2="1322.9431512777323" stroke="#d0d0d0" stroke-width="1"/>
<line x1="2700.0" y1="1209.4375528417258" x2="2239.206992190006" y2="1568.9810313463674" stroke="#d0d0d0" stroke-width="1"/>
<line x1="2700.0" y1="1209.4375528417258" x2="2453.7568576774665" y2="1322.9431512777323" stroke="#d0d0d0" stroke-width="1"/>
<line x1="2239.206992190006" y1="1568.9810313463674" x2="2453.7568576774665" y2="1322.9431512777323" stroke="#d0d0d0" stroke-width="1"/>
<line x1="490.51494742591365" y1="906.6233512413659" x2="1937.4105257263775" y2="1169.081691457075" stroke="#d0d0d0" stroke-width="1"/>
<line x1="490.51494742591365" y1="906.6233512413659" x2="1281.7609787972615" y2="1460.5287249546755" stroke="#d0d0d0" stroke-width="1"/>
<line x1="1937.4105257263775" y1="1169.081691457075" x2="1281.7609787972615" y2="1460.5287249546755" stroke="#d0d0d0" stroke-width="1"/>
<line x1="360.57667788062224" y1="643.6431615899739" x2="1330.6242654603593" y2="551.728299982849" stroke="#d0d0d0" stroke-width="1"/>
<line x1="2118.645492033511" y1="480.3438555433981" x2="1330.6242654603593" y2="551.728299982849" stroke="#d0d0d0" stroke-width="1"/>
<line x1="2118.645492033511" y1="480.3438555433981" x2="1587.0631732923966" y2="372.3605287190654" stroke="#d0d0d0" stroke-width="1"/>
<line x1="2118.645492033511" y1="480.3438555433981" x2="1909.453272836333" y2="418.7293374341347" stroke="#d0d0d0" stroke-width="1"/>
<line x1="1330.6242654603593" y1="551.728299982849" x2="1587.0631732923966" y2="372.3605287190654" stroke="#d0d0d0" stroke-width="1"/>
<line x1="1330.6242654603593" y1="551.728299982849" x2="1909.453272836333" y2="418.7293374341347" stroke="#d0d0d0" stroke-width="1"/>
<line x1="1587.0631732923966" y1="372.3605287190654" x2="1909.453272836333" y2="418.7293374341347" stroke="#d0d0d0" stroke-width="1"/>
<line x1="1909.453272836333" y1="418.7293374341347" x2="2312.5604611230356" y2="653.1112680597048" stroke="#d0d0d0" stroke-width="1"/>
<circle cx="1516.8054944613552" cy="1700.0" r="4" fill="#c62828" />
<text x="1524.8054944613552" y="1704.0" font-size="14" font-family="sans-serif" fill="#c62828">Marxism-Leninism</text>
<circle cx="723.2009847637842" cy="1345.9829224173407" r="4" fill="#d32f2f" />
<text x="731.2009847637842" y="1349.9829224173407" font-size="14" font-family="sans-serif" fill="#d32f2f">Trotskyism (Orthodox)</text>
<circle cx="759.4230208295089" cy="1582.56944888981" r="4" fill="#e53935" />
<text x="767.4230208295089" y="1586.56944888981" font-size="14" font-family="sans-serif" fill="#e53935">Trotskyism (Cliffite)</text>
<circle cx="300.0" cy="1168.073955358171" r="4" fill="#ef5350" />
<text x="308.0" y="1172.073955358171" font-size="14" font-family="sans-serif" fill="#ef5350">Trotskyism (Shachtmanite)</text>
<circle cx="1032.4369869707225" cy="1665.9086985245108" r="4" fill="#b71c1c" />
<text x="1040.4369869707225" y="1669.9086985245108" font-size="14" font-family="sans-serif" fill="#b71c1c">Left-Communism (Bordigist)</text>
<circle cx="531.683824001052" cy="1392.8678412560369" r="4" fill="#ad1457" />
<text x="539.683824001052" y="1396.8678412560369" font-size="14" font-family="sans-serif" fill="#ad1457">Left-Communism (ICT)</text>
<circle cx="641.1565813114235" cy="1112.470818047227" r="4" fill="#880e4f" />
<text x="649.1565813114235" y="1116.470818047227" font-size="14" font-family="sans-serif" fill="#880e4f">Council Communism</text>
<circle cx="1095.402545814998" cy="983.6953754470705" r="4" fill="#6a1b9a" />
<text x="1103.402545814998" y="987.6953754470705" font-size="14" font-family="sans-serif" fill="#6a1b9a">Communisation</text>
<circle cx="994.2381511650495" cy="791.0322267389207" r="4" fill="#4a148c" />
<text x="1002.2381511650495" y="795.0322267389207" font-size="14" font-family="sans-serif" fill="#4a148c">Autonomism</text>
<circle cx="1259.102769851319" cy="695.2804456462667" r="4" fill="#8e24aa" />
<text x="1267.102769851319" y="699.2804456462667" font-size="14" font-family="sans-serif" fill="#8e24aa">Anarcho-Communism</text>
<circle cx="1753.6739468340882" cy="746.9442384875349" r="4" fill="#222222" />
<text x="1761.6739468340882" y="750.9442384875349" font-size="14" font-family="sans-serif" fill="#222222">Insurrectionary Anarchism</text>
<circle cx="838.1223183502759" cy="588.6968551047916" r="4" fill="#222222" />
<text x="846.1223183502759" y="592.6968551047916" font-size="14" font-family="sans-serif" fill="#222222">Anarcho-Syndicalism</text>
<circle cx="720.1257477755437" cy="514.6745429538206" r="4" fill="#222222" />
<text x="728.1257477755437" y="518.6745429538206" font-size="14" font-family="sans-serif" fill="#222222">Syndicalism</text>
<circle cx="2659.0237065246215" cy="957.2027368267782" r="4" fill="#222222" />
<text x="2667.0237065246215" y="961.2027368267782" font-size="14" font-family="sans-serif" fill="#222222">National Syndicalism</text>
<circle cx="2700.0" cy="1209.4375528417258" r="4" fill="#212121" />
<text x="2708.0" y="1213.4375528417258" font-size="14" font-family="sans-serif" fill="#212121">Fascism</text>
<circle cx="2239.206992190006" cy="1568.9810313463674" r="4" fill="#000000" />
<text x="2247.206992190006" y="1572.9810313463674" font-size="14" font-family="sans-serif" fill="#000000">National Bolshevism</text>
<circle cx="2453.7568576774665" cy="1322.9431512777323" r="4" fill="#222222" />
<text x="2461.7568576774665" y="1326.9431512777323" font-size="14" font-family="sans-serif" fill="#222222">Strasserism</text>
<circle cx="1631.8951578127592" cy="1437.1069783159087" r="4" fill="#222222" />
<text x="1639.8951578127592" y="1441.1069783159087" font-size="14" font-family="sans-serif" fill="#222222">Maoism</text>
<circle cx="490.51494742591365" cy="906.6233512413659" r="4" fill="#fb8c00" />
<text x="498.51494742591365" y="910.6233512413659" font-size="14" font-family="sans-serif" fill="#fb8c00">Democratic Socialism</text>
<circle cx="1937.4105257263775" cy="1169.081691457075" r="4" fill="#f57c00" />
<text x="1945.4105257263775" y="1173.081691457075" font-size="14" font-family="sans-serif" fill="#f57c00">Social Democracy</text>
<circle cx="1281.7609787972615" cy="1460.5287249546755" r="4" fill="#222222" />
<text x="1289.7609787972615" y="1464.5287249546755" font-size="14" font-family="sans-serif" fill="#222222">Eurocommunism</text>
<circle cx="360.57667788062224" cy="643.6431615899739" r="4" fill="#222222" />
<text x="368.57667788062224" y="647.6431615899739" font-size="14" font-family="sans-serif" fill="#222222">Eco-Socialism</text>
<circle cx="2118.645492033511" cy="480.3438555433981" r="4" fill="#222222" />
<text x="2126.645492033511" y="484.3438555433981" font-size="14" font-family="sans-serif" fill="#222222">Anarcho-Primitivism</text>
<circle cx="1330.6242654603593" cy="551.728299982849" r="4" fill="#222222" />
<text x="1338.6242654603593" y="555.728299982849" font-size="14" font-family="sans-serif" fill="#222222">Libertarian Socialism</text>
<circle cx="1587.0631732923966" cy="372.3605287190654" r="4" fill="#5e35b1" />
<text x="1595.0631732923966" y="376.3605287190654" font-size="14" font-family="sans-serif" fill="#5e35b1">Mutualism</text>
<circle cx="1126.8726450648471" cy="300.0" r="4" fill="#222222" />
<text x="1134.8726450648471" y="304.0" font-size="14" font-family="sans-serif" fill="#222222">Guild Socialism</text>
<circle cx="1909.453272836333" cy="418.7293374341347" r="4" fill="#222222" />
<text x="1917.453272836333" y="422.7293374341347" font-size="14" font-family="sans-serif" fill="#222222">Utopian Socialism</text>
<circle cx="2312.5604611230356" cy="653.1112680597048" r="4" fill="#222222" />
<text x="2320.5604611230356" y="657.1112680597048" font-size="14" font-family="sans-serif" fill="#222222">Religious Socialism</text>
</svg>
