<svg xmlns="http://www.w3.org/2000/svg" width="3000" height="2000">
<rect width="100%" height="100%" fill="white"/>
<text x="50" y="50" font-size="32" font-family="sans-serif">Ideology Space</text>
<line x1="1416.2423967963161" y1="1547.1907542750205" x2="1980.852224989246" y2="1519.6761134183155" stroke="#d0d0d0" stroke-width="1"/>
<line x1="1416.2423967963161" y1="1547.1907542750205" x2="1345.7223247552126" y2="1417.7903227376123" stroke="#d0d0d0" stroke-width="1"/>
<line x1="1416.2423967963161" y1="1547.1907542750205" x2="1759.9023962667309" y2="1274.1853486373539" stroke="#d0d0d0" stroke-width="1"/>
<line x1="546.463581072482" y1="1349.7354668573275" x2="530.7942279363698" y2="1486.690870446193" stroke="#d0d0d0" stroke-width="1"/>
<line x1="546.463581072482" y1="1349.7354668573275" x2="931.8809524317867" y2="1215.6691466276525" stroke="#d0d0d0" stroke-width="1"/>
<line x1="546.463581072482" y1="1349.7354668573275" x2="300.0" y2="1314.0823857230985" stroke="#d0d0d0" stroke-width="1"/>
<line x1="530.7942279363698" y1="1486.690870446193" x2="678.3970588035627" y2="1700.0" stroke="#d0d0d0" stroke-width="1"/>
<line x1="530.7942279363698" y1="1486.690870446193" x2="300.0" y2="1314.0823857230985" stroke="#d0d0d0" stroke-width="1"/>
<line x1="931.8809524317867" y1="1215.6691466276525" x2="1753.9046229395735" y2="1155.4698647594164" stroke="#d0d0d0" stroke-width="1"/>
<line x1="931.8809524317867" y1="1215.6691466276525" x2="1759.9023962667309" y2="1274.1853486373539" stroke="#d0d0d0" stroke-width="1"/>
<line x1="931.8809524317867" y1="1215.6691466276525" x2="1279.2741328000077" y2="820.2891976731407" stroke="#d0d0d0" stroke-width="1"/>
<line x1="300.0" y1="1314.0823857230985" x2="341.5668668253227" y2="999.4850253779575" stroke="#d0d0d0" stroke-width="1"/>
<line x1="341.5668668253227" y1="999.4850253779575" x2="310.1075437237816" y2="806.3918701280626" stroke="#d0d0d0" stroke-width="1"/>
<line x1="341.5668668253227" y1="999.4850253779575" x2="733.9923166005692" y2="796.3804954677441" stroke="#d0d0d0" stroke-width="1"/>
<line x1="341.5668668253227" y1="999.4850253779575" x2="792.9878364974704" y2="646.1571580206332" stroke="#d0d0d0" stroke-width="1"/>
<line x1="310.1075437237816" y1="806.3918701280626" x2="733.9923166005692" y2="796.3804954677441" stroke="#d0d0d0" stroke-width="1"/>
<line x1="310.1075437237816" y1="806.3918701280626" x2="792.9878364974704" y2="646.1571580206332" stroke="#d0d0d0" stroke-width="1"/>
<line x1="310.1075437237816" y1="806.3918701280626" x2="772.3375183966314" y2="513.4516946070526" stroke="#d0d0d0" stroke-width="1"/>
<line x1="310.1075437237816" y1="806.3918701280626" x2="1121.4907362773847" y2="713.7462413343865" stroke="#d0d0d0" stroke-width="1"/>
<line x1="733.9923166005692" y1="796.3804954677441" x2="792.9878364974704" y2="646.1571580206332" stroke="#d0d0d0" stroke-width="1"/>
<line x1="733.9923166005692" y1="796.3804954677441" x2="772.3375183966314" y2="513.4516946070526" stroke="#d0d0d0" stroke-width="1"/>
<line x1="733.9923166005692" y1="796.3804954677441" x2="1279.2741328000077" y2="820.2891976731407" stroke="#d0d0d0" stroke-width="1"/>
<line x1="733.9923166005692" y1="796.3804954677441" x2="1121.4907362773847" y2="713.7462413343865" stroke="#d0d0d0" stroke-width="1"/>
<line x1="792.9878364974704" y1="646.1571580206332" x2="772.3375183966314" y2="513.4516946070526" stroke="#d0d0d0" stroke-width="1"/>
<line x1="792.9878364974704" y1="646.1571580206332" x2="1279.2741328000077" y2="820.2891976731407" stroke="#d0d0d0" stroke-width="1"/>
<line x1="792.9878364974704" y1="646.1571580206332" x2="1121.4907362773847" y2="713.7462413343865" stroke="#d0d0d0" stroke-width="1"/>
<line x1="772.3375183966314" y1="513.4516946070526" x2="1349.2618453879088" y2="300.0" stroke="#d0d0d0" stroke-width="1"/>
<line x1="772.3375183966314" y1="513.4516946070526" x2="1121.4907362773847" y2="713.7462413343865" stroke="#d0d0d0" stroke-width="1"/>
<line x1="979.4619298047045" y1="852.7236517475676" x2="1361.344962412248" y2="957.6966048372776" stroke="#d0d0d0" stroke-width="1"/>
<line x1="979.4619298047045" y1="852.7236517475676" x2="1279.2741328000077" y2="820.2891976731407" stroke="#d0d0d0" stroke-width="1"/>
<line x1="979.4619298047045" y1="852.7236517475676" x2="1121.4907362773847" y2="713.7462413343865" stroke="#d0d0d0" stroke-width="1"/>
<line x1="1361.344962412248" y1="957.6966048372776" x2="1279.2741328000077" y2="820.2891976731407" stroke="#d0d0d0" stroke-width="1"/>
<line x1="1361.344962412248" y1="957.6966048372776" x2="1121.4907362773847" y2="713.7462413343865" stroke="#d0d0d0" stroke-width="1"/>
<line x1="1361.344962412248" y1="957.6966048372776" x2="1985.2152451683291" y2="868.8110722515584" stroke="#d0d0d0" stroke-width="1"/>
<line x1="2693.8917947546165" y1="1140.6722680028593" x2="2700.0" y2="1475.380330690646" stroke="#d0d0d0" stroke-width="1"/>
<line x1="2693.8917947546165" y1="1140.6722680028593" x2="1980.852224989246" y2="1519.6761134183155" stroke="#d0d0d0" stroke-width="1"/>
<line x1="2693.8917947546165" y1="1140.6722680028593" x2="2313.558937644062" y2="1401.0588872100118" stroke="#d0d0d0" stroke-width="1"/>
<line x1="2700.0" y1="1475.380330690646" x2="1980.852224989246" y2="1519.6761134183155" stroke="#d0d0d0" stroke-width="1"/>
<line x1="2700.0" y1="1475.380330690646" x2="2313.558937644062" y2="1401.0588872100118" stroke="#d0d0d0" stroke-width="1"/>
<line x1="1980.852224989246" y1="1519.6761134183155" x2="2313.558937644062" y2="1401.0588872100118" stroke="#d0d0d0" stroke-width="1"/>
<line x1="1980.852224989246" y1="1519.6761134183155" x2="1345.7223247552126" y2="1417.7903227376123" stroke="#d0d0d0" stroke-width="1"/>
<line x1="2313.558937644062" y1="1401.0588872100118" x2="2299.7695739278906" y2="1201.4596801823195" stroke="#d0d0d0" stroke-width="1"/>
<line x1="1753.9046229395735" y1="1155.4698647594164" x2="2299.7695739278906" y2="1201.4596801823195" stroke="#d0d0d0" stroke-width="1"/>
<line x1="1753.9046229395735" y1="1155.4698647594164" x2="1759.9023962667309" y2="1274.1853486373539" stroke="#d0d0d0" stroke-width="1"/>
<line x1="1753.9046229395735" y1="1155.4698647594164" x2="1279.2741328000077" y2="820.2891976731407" stroke="#d0d0d0" stroke-width="1"/>
<line x1="2299.7695739278906" y1="1201.4596801823195" x2="1759.9023962667309" y2="1274.1853486373539" stroke="#d0d0d0" stroke-width="1"/>
<line x1="1279.2741328000077" y1="820.2891976731407" x2="1121.4907362773847" y2="713.7462413343865" stroke="#d0d0d0" stroke-width="1"/>
<line x1="1279.2741328000077" y1="820.2891976731407" x2="1719.871468206138" y2="574.3471452372044" stroke="#d0d0d0" stroke-width="1"/>
<line x1="1279.2741328000077" y1="820.2891976731407" x2="1985.2152451683291" y2="868.8110722515584" stroke="#d0d0d0" stroke-width="1"/>
<line x1="1279.2741328000077" y1="820.2891976731407" x2="1863.586663881216" y2="505.16228709595316" stroke="#d0d0d0" stroke-width="1"/>
<line x1="1279.2741328000077" y1="820.2891976731407" x2="2047.2132257625517" y2="748.5305516123047" stroke="#d0d0d0" stroke-width="1"/>
<line x1="1121.4907362773847" y1="713.7462413343865" x2="1719.871468206138" y2="574.3471452372044" stroke="#d0d0d0" stroke-width="1"/>
<line x1="1121.4907362773847" y1="713.7462413343865" x2="1863.586663881216" y2="505.16228709595316" stroke="#d0d0d0" stroke-width="1"/>
<line x1="1719.871468206138" y1="574.3471452372044" x2="1985.2152451683291" y2="868.8110722515584" stroke="#d0d0d0" stroke-width="1"/>
<line x1="1719.871468206138" y1="574.3471452372044" x2="1863.586663881216" y2="505.16228709595316" stroke="#d0d0d0" stroke-width="1"/>
<line x1="1985.2152451683291" y1="868.8110722515584" x2="2047.2132257625517" y2="748.5305516123047" stroke="#d0d0d0" stroke-width="1"/>
<line x1="1863.586663881216" y1="505.16228709595316" x2="2047.2132257625517" y2="748.5305516123047" stroke="#d0d0d0" stroke-width="1"/>
<circle cx="1416.2423967963161" cy="1547.1907542750205" r="4" fill="#c62828" />
<text x="1424.2423967963161" y="1551.1907542750205" font-size="14" font-family="sans-serif" fill="#c62828">Marxism-Leninism</text>
<circle cx="546.463581072482" cy="1349.7354668573275" r="4" fill="#d32f2f" />
<text x="554.463581072482" y="1353.7354668573275" font-size="14" font-family="sans-serif" fill="#d32f2f">Trotskyism (Orthodox)</text>
<circle cx="530.7942279363698" cy="1486.690870446193" r="4" fill="#e53935" />
<text x="538.7942279363698" y="1490.690870446193" font-size="14" font-family="sans-serif" fill="#e53935">Trotskyism (Cliffite)</text>
<circle cx="931.8809524317867" cy="1215.6691466276525" r="4" fill="#ef5350" />
<text x="939.8809524317867" y="1219.6691466276525" font-size="14" font-family="sans-serif" fill="#ef5350">Trotskyism (Shachtmanite)</text>
<circle cx="678.3970588035627" cy="1700.0" r="4" fill="#b71c1c" />
<text x="686.3970588035627" y="1704.0" font-size="14" font-family="sans-serif" fill="#b71c1c">Left-Communism (Bordigist)</text>
<circle cx="300.0" cy="1314.0823857230985" r="4" fill="#ad1457" />
<text x="308.0" y="1318.0823857230985" font-size="14" font-family="sans-serif" fill="#ad1457">Left-Communism (ICT)</text>
<circle cx="341.5668668253227" cy="999.4850253779575" r="4" fill="#880e4f" />
<text x="349.5668668253227" y="1003.4850253779575" font-size="14" font-family="sans-serif" fill="#880e4f">Council Communism</text>
<circle cx="310.1075437237816" cy="806.3918701280626" r="4" fill="#6a1b9a" />
<text x="318.1075437237816" y="810.3918701280626" font-size="14" font-family="sans-serif" fill="#6a1b9a">Communisation</text>
<circle cx="733.9923166005692" cy="796.3804954677441" r="4" fill="#4a148c" />
<text x="741.9923166005692" y="800.3804954677441" font-size="14" font-family="sans-serif" fill="#4a148c">Autonomism</text>
<circle cx="792.9878364974704" cy="646.1571580206332" r="4" fill="#8e24aa" />
<text x="800.9878364974704" y="650.1571580206332" font-size="14" font-family="sans-serif" fill="#8e24aa">Anarcho-Communism</text>
<circle cx="772.3375183966314" cy="513.4516946070526" r="4" fill="#222222" />
<text x="780.3375183966314" y="517.4516946070526" font-size="14" font-family="sans-serif" fill="#222222">Insurrectionary Anarchism</text>
<circle cx="979.4619298047045" cy="852.7236517475676" r="4" fill="#222222" />
<text x="987.4619298047045" y="856.7236517475676" font-size="14" font-family="sans-serif" fill="#222222">Anarcho-Syndicalism</text>
<circle cx="1361.344962412248" cy="957.6966048372776" r="4" fill="#222222" />
<text x="1369.344962412248" y="961.6966048372776" font-size="14" font-family="sans-serif" fill="#222222">Syndicalism</text>
<circle cx="2693.8917947546165" cy="1140.6722680028593" r="4" fill="#222222" />
<text x="2701.8917947546165" y="1144.6722680028593" font-size="14" font-family="sans-serif" fill="#222222">National Syndicalism</text>
<circle cx="2700.0" cy="1475.380330690646" r="4" fill="#212121" />
<text x="2708.0" y="1479.380330690646" font-size="14" font-family="sans-serif" fill="#212121">Fascism</text>
<circle cx="1980.852224989246" cy="1519.6761134183155" r="4" fill="#000000" />
<text x="1988.852224989246" y="1523.6761134183155" font-size="14" font-family="sans-serif" fill="#000000">National Bolshevism</text>
<circle cx="2313.558937644062" cy="1401.0588872100118" r="4" fill="#222222" />
<text x="2321.558937644062" y="1405.0588872100118" font-size="14" font-family="sans-serif" fill="#222222">Strasserism</text>
<circle cx="1345.7223247552126" cy="1417.7903227376123" r="4" fill="#222222" />
<text x="1353.7223247552126" y="1421.7903227376123" font-size="14" font-family="sans-serif" fill="#222222">Maoism</text>
<circle cx="1753.9046229395735" cy="1155.4698647594164" r="4" fill="#fb8c00" />
<text x="1761.9046229395735" y="1159.4698647594164" font-size="14" font-family="sans-serif" fill="#fb8c00">Democratic Socialism</text>
<circle cx="2299.7695739278906" cy="1201.4596801823195" r="4" fill="#f57c00" />
<text x="2307.7695739278906" y="1205.4596801823195" font-size="14" font-family="sans-serif" fill="#f57c00">Social Democracy</text>
<circle cx="1759.9023962667309" cy="1274.1853486373539" r="4" fill="#222222" />
<text x="1767.9023962667309" y="1278.1853486373539" font-size="14" font-family="sans-serif" fill="#222222">Eurocommunism</text>
<circle cx="1279.2741328000077" cy="820.2891976731407" r="4" fill="#222222" />
<text x="1287.2741328000077" y="824.2891976731407" font-size="14" font-family="sans-serif" fill="#222222">Eco-Socialism</text>
<circle cx="1349.2618453879088" cy="300.0" r="4" fill="#222222" />
<text x="1357.2618453879088" y="304.0" font-size="14" font-family="sans-serif" fill="#222222">Anarcho-Primitivism</text>
<circle cx="1121.4907362773847" cy="713.7462413343865" r="4" fill="#222222" />
<text x="1129.4907362773847" y="717.7462413343865" font-size="14" font-family="sans-serif" fill="#222222">Libertarian Socialism</text>
<circle cx="1719.871468206138" cy="574.3471452372044" r="4" fill="#5e35b1" />
<text x="1727.871468206138" y="578.3471452372044" font-size="14" font-family="sans-serif" fill="#5e35b1">Mutualism</text>
<circle cx="1985.2152451683291" cy="868.8110722515584" r="4" fill="#222222" />
<text x="1993.2152451683291" y="872.8110722515584" font-size="14" font-family="sans-serif" fill="#222222">Guild Socialism</text>
<circle cx="1863.586663881216" cy="505.16228709595316" r="4" fill="#222222" />
<text x="1871.586663881216" y="509.16228709595316" font-size="14" font-family="sans-serif" fill="#222222">Utopian Socialism</text>
<circle cx="2047.2132257625517" cy="748.5305516123047" r="4" fill="#222222" />
<text x="2055.2132257625517" y="752.5305516123047" font-size="14" font-family="sans-serif" fill="#222222">Religious Socialism</text>
</svg>
